<svg width="27" height="26" viewBox="0 0 27 26" fill="none" xmlns="http://www.w3.org/2000/svg">
<path d="M1 7.89868L6.83333 9.90993L10.1667 19.1617H22.6667L26 9.90993" stroke="#EBEBEB" stroke-width="2"/>
<ellipse rx="2.08333" ry="2.01125" transform="matrix(1 0 0 -1 11.4168 23.9887)" fill="#EBEBEB"/>
<ellipse rx="2.08333" ry="2.01125" transform="matrix(1 0 0 -1 21.4168 23.9887)" fill="#EBEBEB"/>
<path d="M15.5404 11.4596C15.7942 11.7135 16.2058 11.7135 16.4596 11.4596L20.5962 7.32304C20.85 7.0692 20.85 6.65765 20.5962 6.40381C20.3424 6.14997 19.9308 6.14997 19.677 6.40381L16 10.0808L12.323 6.40381C12.0692 6.14997 11.6576 6.14997 11.4038 6.40381C11.15 6.65765 11.15 7.0692 11.4038 7.32304L15.5404 11.4596ZM15.35 0V11H16.65V0L15.35 0Z" fill="#EBEBEB"/>
</svg>
