<svg width="25" height="27" viewBox="0 0 25 27" fill="none" xmlns="http://www.w3.org/2000/svg">
<path d="M22.2494 4.17519H21.4586C21.3886 4.17519 21.3256 4.18906 21.2626 4.2168V1.5813C21.2626 0.707424 20.5417 0 19.6669 0C18.785 0 18.0711 0.707424 18.0711 1.5813V4.18212C18.0431 4.17519 18.0151 4.17519 17.9801 4.17519H7.01988C6.97788 4.17519 6.93589 4.18212 6.9009 4.18906V1.5813C6.9009 0.707424 6.18701 0 5.30515 0C4.42329 0 3.70941 0.707424 3.70941 1.5813V4.20293C3.65342 4.18212 3.60442 4.17519 3.54843 4.17519H2.75056C1.2318 4.17519 0 5.39584 0 6.90085V24.2743C0 25.7793 1.2318 27 2.75056 27H22.2494C23.7682 27 25 25.7793 25 24.2743V6.90085C25 5.39584 23.7682 4.17519 22.2494 4.17519ZM18.96 1.5813C18.96 1.19985 19.2749 0.887747 19.6599 0.887747C20.0448 0.887747 20.3597 1.19985 20.3597 1.5813V6.34601C20.3597 6.72746 20.0448 7.03956 19.6599 7.03956C19.2749 7.03956 18.96 6.72746 18.96 6.34601V1.5813ZM4.60526 1.5813C4.60526 1.19985 4.92021 0.887747 5.30515 0.887747C5.69009 0.887747 6.00504 1.19985 6.00504 1.5813V6.34601C6.00504 6.72746 5.69009 7.03956 5.30515 7.03956C4.92021 7.03956 4.60526 6.72746 4.60526 6.34601V1.5813ZM24.0272 24.2743C24.0272 25.2453 23.2293 26.036 22.2424 26.036H2.75056C1.77072 26.036 0.965845 25.2453 0.965845 24.2743V6.90085C0.965845 5.92987 1.76372 5.13229 2.75056 5.13229H3.05851V6.07552C3.05851 7.28924 4.05235 8.28102 5.28415 8.28102C6.50896 8.28102 7.5098 7.29617 7.5098 6.07552V5.13229H17.4972V6.07552C17.4972 7.28924 18.491 8.28102 19.7228 8.28102C20.9476 8.28102 21.9485 7.29617 21.9485 6.07552V5.13229H22.2564C23.2363 5.13229 24.0412 5.92294 24.0412 6.90085V24.2743H24.0272Z" fill="#EBEBEB"/>
<path d="M22.6207 11.0969H2.46388C2.19792 11.0969 1.98096 11.3119 1.98096 11.5755V23.3797C1.98096 24.2883 2.72984 25.0304 3.65369 25.0304H21.4378C22.3547 25.0304 23.1106 24.2883 23.1106 23.3797V11.5755C23.1036 11.3119 22.8866 11.0969 22.6207 11.0969ZM22.1307 23.3797C22.1307 23.7612 21.8158 24.0733 21.4308 24.0733H3.64669C3.26175 24.0733 2.9468 23.7612 2.9468 23.3797V12.061H22.1307V23.3797Z" fill="#EBEBEB"/>
</svg>
