<svg xmlns="http://www.w3.org/2000/svg" width="36" height="32" viewBox="0 0 36 32"><g><g><path fill="#ebebeb" d="M33.107 24.6a9.351 9.351 0 0 1-1.18 1.91l.748 1.168a.841.841 0 0 1-.207 1.127l-2.852 2.056c-.167.126-.373.167-.57.126a.798.798 0 0 1-.492-.345l-.747-1.169a8.203 8.203 0 0 1-2.104.47l-.246 1.388c-.079.386-.393.658-.757.658-.05 0-.099 0-.148-.01l-3.392-.69c-.413-.083-.689-.511-.61-.95l.246-1.388a8.713 8.713 0 0 1-1.8-1.252l-1.101.793c-.167.125-.374.167-.57.125a.798.798 0 0 1-.492-.344l-1.937-3.027c-.118-.177-.158-.396-.118-.605a.854.854 0 0 1 .324-.522l1.102-.793a10.176 10.176 0 0 1-.433-2.234l-1.308-.26c-.413-.084-.688-.512-.61-.95l.65-3.601a.853.853 0 0 1 .324-.522c.177-.125.383-.167.58-.125l1.308.26a9.35 9.35 0 0 1 1.18-1.91l-.747-1.168a.82.82 0 0 1-.118-.606.853.853 0 0 1 .324-.521l2.852-2.057a.702.702 0 0 1 .57-.125.798.798 0 0 1 .492.345l.747 1.169a8.2 8.2 0 0 1 2.105-.47l.245-1.388a.853.853 0 0 1 .325-.522c.177-.125.383-.167.58-.125l3.393.688c.413.084.688.512.61.95l-.247 1.388a8.709 8.709 0 0 1 1.8 1.253l1.101-.793a.702.702 0 0 1 .57-.126.798.798 0 0 1 .492.345l1.937 3.027a.841.841 0 0 1-.206 1.127l-1.101.793c.236.72.383 1.472.442 2.233l1.308.261a.798.798 0 0 1 .492.345.82.82 0 0 1 .118.605l-.65 3.601c-.078.438-.481.73-.894.647zm-.295-1.713l1.15.23.364-1.993-1.15-.23c-.354-.073-.61-.397-.62-.783a8.3 8.3 0 0 0-.57-2.933.835.835 0 0 1 .275-.98l.964-.7-1.082-1.68-.963.699a.727.727 0 0 1-.964-.084 7.494 7.494 0 0 0-2.36-1.649.84.84 0 0 1-.462-.908l.216-1.22-1.878-.387-.216 1.221a.782.782 0 0 1-.738.658c-.954.01-1.878.219-2.763.605a.747.747 0 0 1-.924-.292l-.659-1.023-1.583 1.138.659 1.022a.843.843 0 0 1-.079 1.023 8.034 8.034 0 0 0-1.554 2.505c-.147.355-.501.564-.855.49l-1.15-.229-.365 1.994 1.15.23c.355.072.61.396.62.782a8.3 8.3 0 0 0 .57 2.933.835.835 0 0 1-.275.98l-.963.7 1.081 1.68.964-.699a.727.727 0 0 1 .964.084 7.491 7.491 0 0 0 2.36 1.649.84.84 0 0 1 .462.908l-.216 1.221 1.897.376.217-1.211a.782.782 0 0 1 .737-.657 7.095 7.095 0 0 0 2.764-.606.735.735 0 0 1 .924.292l.659 1.023 1.583-1.148-.659-1.023a.843.843 0 0 1 .079-1.022 8.034 8.034 0 0 0 1.553-2.505c.138-.355.492-.564.836-.48z"/></g><g><path fill="#ebebeb" d="M25.96 14.495c2.989.605 4.955 3.674 4.385 6.847-.501 2.797-2.822 4.759-5.418 4.759-.334 0-.688-.031-1.033-.104-1.445-.293-2.704-1.17-3.53-2.464a6.111 6.111 0 0 1-.855-4.383c.275-1.534 1.101-2.87 2.32-3.747 1.22-.877 2.685-1.2 4.13-.908zm-.286 1.607a3.8 3.8 0 0 0-2.99.658 4.24 4.24 0 0 0-1.67 2.703 4.396 4.396 0 0 0 .619 3.162c.6.93 1.504 1.566 2.547 1.775a3.763 3.763 0 0 0 2.98-.658 4.24 4.24 0 0 0 1.67-2.703c.414-2.296-1.002-4.509-3.156-4.937z"/></g><g><path fill="#ebebeb" d="M.01 8.701a.564.564 0 0 1 .108-.448.536.536 0 0 1 .373-.24l.994-.157a7.41 7.41 0 0 1 .403-1.66L1.08 5.56a.664.664 0 0 1-.226-.397.637.637 0 0 1 .118-.459l1.554-2.202a.536.536 0 0 1 .374-.24c.157-.021.304.02.432.115l.797.636a6.315 6.315 0 0 1 1.386-.876L5.38 1.082a.653.653 0 0 1 .108-.448.617.617 0 0 1 .383-.24L8.437.007c.314-.052.61.178.659.512l.127 1.064c.531.084 1.063.22 1.564.428l.6-.856a.575.575 0 0 1 .383-.24c.148-.02.305.021.423.115l2.075 1.65c.128.104.206.25.226.406a.652.652 0 0 1-.108.45l-.6.855c.335.449.61.95.826 1.472l.993-.147c.315-.041.6.188.65.522l.373 2.724a.652.652 0 0 1-.108.45.575.575 0 0 1-.384.24l-.993.145a7.41 7.41 0 0 1-.403 1.66l.806.636c.256.199.305.585.118.856l-1.553 2.203a.557.557 0 0 1-.807.125l-.806-.637a6.32 6.32 0 0 1-1.387.877l.138 1.054c.04.334-.177.637-.492.689l-2.566.396c-.02.01-.05.01-.079.01a.54.54 0 0 1-.344-.124.625.625 0 0 1-.226-.407l-.138-1.055a6.462 6.462 0 0 1-1.563-.427l-.6.855a.557.557 0 0 1-.806.126l-2.075-1.65a.625.625 0 0 1-.226-.407.653.653 0 0 1 .108-.448l.6-.856a6.874 6.874 0 0 1-.826-1.472l-.994.146c-.314.042-.6-.188-.649-.522zm1.219.439l.216 1.524.866-.136c.265-.042.52.125.62.397.245.71.609 1.356 1.08 1.93.178.22.197.543.03.773l-.53.74 1.15.92.53-.752a.562.562 0 0 1 .463-.24.5.5 0 0 1 .246.052 4.895 4.895 0 0 0 2.045.532.6.6 0 0 1 .531.522l.128.918 1.426-.219-.128-.918a.611.611 0 0 1 .374-.658 5.738 5.738 0 0 0 1.819-1.148.552.552 0 0 1 .727-.031l.709.563.865-1.22-.698-.554a.641.641 0 0 1-.177-.751 6.43 6.43 0 0 0 .53-2.182.608.608 0 0 1 .492-.563l.866-.136-.207-1.513-.865.135a.57.57 0 0 1-.62-.396 6.242 6.242 0 0 0-1.081-1.931.643.643 0 0 1-.03-.772l.531-.741-1.15-.919-.531.752a.56.56 0 0 1-.708.187 5.51 5.51 0 0 0-2.056-.563.6.6 0 0 1-.53-.522l-.128-.918-1.426.219.118.929a.619.619 0 0 1-.374.657 5.738 5.738 0 0 0-1.82 1.148.565.565 0 0 1-.727.032l-.698-.564-.865 1.221.698.564c.216.177.295.49.177.751a6.373 6.373 0 0 0-.531 2.182.608.608 0 0 1-.492.563z"/></g><g><path fill="#ebebeb" d="M4.222 9.463c-.324-2.4 1.25-4.634 3.51-4.978 2.263-.344 4.367 1.326 4.691 3.726.325 2.4-1.248 4.634-3.51 4.979a3.74 3.74 0 0 1-.59.041c-2.026 0-3.806-1.586-4.1-3.768zm1.141-.187c.226 1.732 1.75 2.943 3.383 2.692 1.632-.24 2.773-1.857 2.537-3.59-.217-1.576-1.495-2.724-2.96-2.724-.138 0-.275.01-.423.031-1.632.25-2.773 1.858-2.537 3.59z"/></g></g></svg>