<svg xmlns="http://www.w3.org/2000/svg" width="250" height="28" viewBox="0 0 250 28"><g><g><g/><g><g><g><g><path fill="#fff" d="M57.162 26.884H46.53V.5h25.304C79.995.5 83.55 2.984 83.55 7.271v.393c0 3.83-3.52 5.39-5.617 5.887 3.412.745 5.73 2.871 5.73 6.274v3.9c0 1.843.262 2.519.523 2.98v.18H73.333c-.227-.284-.336-.637-.336-1.382v-3.085c0-3.05-1.46-4.575-5.651-4.575H57.162zm0-15.425h12.201c2.323 0 3.22-.994 3.22-2.27v-.035c0-1.242-.863-2.235-3.22-2.235h-12.2z"/></g><g><path fill="#fff" d="M130.272 14.149c0 4.928-2.283 13.225-20.288 13.225h-1.686c-18.045 0-20.328-8.297-20.328-13.225v-1.064C87.97 8.087 90.253 0 108.298 0h1.686c17.966 0 20.288 8.087 20.288 13.085zm-31.295-.388c0 2.767 1.908 6.488 10.144 6.488s10.144-3.617 10.144-6.418v-.497c0-2.802-1.874-6.24-10.144-6.24-8.384 0-10.144 3.438-10.144 6.24z"/></g><g><path fill="#fff" d="M175.052 15.922v.567c0 3.473-2.584 10.885-19.39 10.885h-1.46c-17.143 0-19.692-8.262-19.692-13.26v-1.029C134.51 8.048 136.833 0 154.201 0h1.46c16.955 0 19.352 7.307 19.39 10.671v.462H164.01c-.187-.675-1.124-4.043-9.172-4.043-7.674 0-9.321 3.224-9.321 6.17v.427c0 2.837 1.87 6.558 9.36 6.558 8.196 0 9.02-3.721 9.172-4.327h11.003z"/></g><g><path fill="#fff" d="M204.48 22.627h-15.909l-2.13 4.257H175.66L189.434.5h14.301l14.563 26.384h-11.644zm-3.407-6.597l-4.68-9.077-4.567 9.077z"/></g><g><path fill="#fff" d="M227.358 26.884V7.7H215.34V.5h34.663v7.199h-12.017v19.185z"/></g></g></g><g><g><path fill="#e42320" d="M39.33 24.41H0v2.466h39.33z"/></g><g opacity=".85"><path fill="#e42320" d="M39.33 19.25H0v2.004h39.33z"/></g><g opacity=".75"><path fill="#e42320" d="M39.33 14.04H0v2.044h39.33z"/></g><g opacity=".65"><path fill="#e42320" d="M39.33 9.27H0v1.612h39.33z"/></g><g opacity=".55"><path fill="#e42320" d="M39.33 4.81H0v1.299h39.33z"/></g><g opacity=".4"><path fill="#e42320" d="M39.33.5H0v1.146h39.33z"/></g></g></g></g></g></svg>