<svg width="41" height="40" viewBox="0 0 41 40" fill="none" xmlns="http://www.w3.org/2000/svg">
<path fill-rule="evenodd" clip-rule="evenodd" d="M34 0C37.3137 0 40 2.68629 40 6V34C40 37.3137 37.3137 40 34 40H6C2.68629 40 0 37.3137 0 34V6C0 2.68629 2.68629 0 6 0H34ZM36.0002 20.6039L27.6643 33.1093C27.0487 34.0326 25.8128 34.2674 24.9082 33.6758L24.7198 33.5363L14.3752 24.9158L6.45615 35.9999H34.0002C35.1047 35.9999 36.0002 35.1045 36.0002 33.9999V20.6039ZM33.9999 3.9999H5.9999C4.89533 3.9999 3.9999 4.89533 3.9999 5.9999V32.5559L12.3724 20.8374C13.0002 19.9585 14.1989 19.7473 15.0824 20.3179L15.2803 20.4635L25.5704 29.0386L35.9999 13.3919V5.9999C35.9999 4.89533 35.1045 3.9999 33.9999 3.9999ZM12.0001 8.0001C14.2092 8.0001 16.0001 9.79096 16.0001 12.0001C16.0001 14.2092 14.2092 16.0001 12.0001 16.0001C9.79096 16.0001 8.0001 14.2092 8.0001 12.0001C8.0001 9.79096 9.79096 8.0001 12.0001 8.0001Z" fill="#e42320"/>
</svg>
