<svg width="40" height="40" viewBox="0 0 40 40" fill="none" xmlns="http://www.w3.org/2000/svg">
<path fill-rule="evenodd" clip-rule="evenodd" d="M38 36C39.1046 36 40 36.8954 40 38C40 39.1046 39.1046 40 38 40H2C0.89543 40 0 39.1046 0 38C0 36.8954 0.89543 36 2 36H38ZM8.58588 22.5858L30.5859 0.585786C31.3069 -0.135181 32.4413 -0.190641 33.2259 0.419409L33.4143 0.585786L39.4143 6.58579C40.1353 7.30675 40.1907 8.44122 39.5807 9.2258L39.4143 9.41421L17.4143 31.4142C17.1017 31.7268 16.6964 31.9252 16.263 31.9827L16.0001 32H10.0001C8.97443 32 8.12908 31.2279 8.01355 30.2332L8.0001 30V24C8.0001 23.558 8.14643 23.131 8.41226 22.7839L8.58588 22.5858L30.5859 0.585786L8.58588 22.5858ZM32 4.82842L12 24.8284V28H15.1716L35.1716 7.99999L32 4.82842Z" fill="#e42320"/>
</svg>
