<svg width="40" height="40" viewBox="0 0 40 40" fill="none" xmlns="http://www.w3.org/2000/svg">
<path fill-rule="evenodd" clip-rule="evenodd" d="M40 34C40 37.3137 37.3137 40 34 40H6C2.68629 40 0 37.3137 0 34V6C0 2.68629 2.68629 0 6 0H14.001C15.105 0 16 0.894983 16 1.999C16 3.10308 15.1051 3.99818 14.001 3.9984L6 4C4.89543 4 4 4.89543 4 6V32.556L12.3725 20.8375C13.0003 19.9586 14.199 19.7474 15.0825 20.318L15.2804 20.4636L25.57 29.036L28.3359 24.8906C28.9893 23.9105 30.3272 23.717 31.2282 24.4211L31.4142 24.5858L36 29.17V26C36 24.8954 36.8954 24 38 24C39.1046 24 40 24.8954 40 26V34ZM14.3742 24.9161L6.45615 36.0001H34.0002C34.858 36.0001 35.5897 35.4601 35.8737 34.7014L30.3102 29.1401L27.6643 33.1095C27.0487 34.0328 25.8128 34.2676 24.9082 33.676L24.7198 33.5366L14.3742 24.9161ZM30.0001 0C31.1047 0 32.0001 0.89543 32.0001 2V8H38.0001C39.1047 8 40.0001 8.89543 40.0001 10C40.0001 11.1046 39.1047 12 38.0001 12H32.0001V18C32.0001 19.1046 31.1047 20 30.0001 20C28.8955 20 28.0001 19.1046 28.0001 18V12H22.0001C20.8955 12 20.0001 11.1046 20.0001 10C20.0001 8.89543 20.8955 8 22.0001 8H28.0001V2C28.0001 0.89543 28.8955 0 30.0001 0ZM12.0001 8.0001C14.2092 8.0001 16.0001 9.79096 16.0001 12.0001C16.0001 14.2092 14.2092 16.0001 12.0001 16.0001C9.79096 16.0001 8.0001 14.2092 8.0001 12.0001C8.0001 9.79096 9.79096 8.0001 12.0001 8.0001Z" fill="#e42320"/>
</svg>
