<svg width="41" height="40" viewBox="0 0 41 40" fill="none" xmlns="http://www.w3.org/2000/svg">
<path fill-rule="evenodd" clip-rule="evenodd" d="M15.1093 15.664C15.6657 15.2931 15.9999 14.6686 15.9999 13.9999V5.99996C15.9999 2.68627 13.3136 0 9.99993 0H1.99999C0.895424 0 0 0.895424 0 1.99999C0 21.8821 18.1176 39.9997 37.9997 39.9997C39.1043 39.9997 39.9997 39.1043 39.9997 37.9997V29.9998C39.9997 26.6861 37.3134 23.9998 33.9997 23.9998H25.9998C25.3311 23.9998 24.7066 24.334 24.3357 24.8904L20.5251 30.6064C16.3747 27.9228 12.7384 24.3782 9.94141 20.2978L9.3933 19.4746L15.1093 15.664ZM27.0702 27.9998H33.9997C35.1043 27.9998 35.9997 28.8953 35.9997 29.9998V35.9304C32.1253 35.6623 28.3441 34.6261 24.8173 32.9829L24.008 32.593L27.0702 27.9998ZM9.99992 4.00002C11.1045 4.00002 11.9999 4.89544 11.9999 6V12.9296L7.40669 15.9917C5.5376 12.2369 4.35803 8.17251 4.06931 4.00002H9.99992ZM20.0551 8.46722L20.0309 8.34975L20.0038 8.11821L20.0038 7.88186L20.0308 7.65083L20.1 7.37465L20.1639 7.20649L20.2924 6.95878L20.3732 6.83657L20.4335 6.75692L20.5861 6.58589L26.586 0.585797L26.7744 0.419417C27.4936 -0.139806 28.5068 -0.139806 29.226 0.419417L29.4144 0.585797L29.5808 0.774215C30.14 1.49343 30.14 2.50664 29.5808 3.22586L29.4144 3.41428L26.8302 6.00037L38.0002 6.00011C39.0258 6.00011 39.8712 6.77218 39.9867 7.76685L40.0001 8.00009L39.9867 8.23344C39.88 9.15159 39.1516 9.88008 38.2334 9.98673L38.0002 10.0002L26.8302 10.0003L29.4144 12.586L29.5808 12.7744C30.1909 13.559 30.1354 14.6935 29.4144 15.4145C28.6935 16.1355 27.559 16.1909 26.7744 15.5809L26.586 15.4145L20.5861 9.4144L20.3929 9.19051L20.25 8.96874L20.1876 8.8466L20.0998 8.62444L20.0551 8.46722Z" fill="#e42320"/>
</svg>
