<svg width="40" height="40" viewBox="0 0 40 40" fill="none" xmlns="http://www.w3.org/2000/svg">
<path fill-rule="evenodd" clip-rule="evenodd" d="M32 0C33.1701 0 34.0903 1.00005 33.9931 2.16609L33.84 4H38C39.1046 4 40 4.89543 40 6V14C40 18.3981 36.4509 21.9673 32.0605 21.9998C31.0965 25.5613 28.9827 28.7382 26 31.0263L25.998 36H34C35.1046 36 36 36.8954 36 38C36 39.1046 35.1046 40 34 40H6C4.89543 40 4 39.1046 4 38C4 36.8954 4.89543 36 6 36H13.998L14 31.0279L13.5339 30.6586C10.8061 28.4178 8.8549 25.3858 7.93805 21.9997C3.68429 21.9663 0.222516 18.6164 0.0103093 14.4097L0 14V6C0 4.97433 0.77208 4.12899 1.76676 4.01346L2 4H6.158L6.00691 2.16609C5.90974 1.00005 6.82992 0 8 0H32ZM29.8264 3.9999H10.1736L11.3943 18.6476C11.7219 22.5797 13.8264 26.1471 17.1094 28.3358C17.6658 28.7067 18 29.3312 18 29.9999V35.9999H22V29.9999C22 29.3446 22.321 28.7309 22.8592 28.3572L23.2949 28.055C26.3506 25.8458 28.2923 22.4101 28.6058 18.6476L29.8264 3.9999ZM6.4919 8.0001H3.9999V14.0001C3.9999 15.9782 5.43578 17.621 7.32212 17.9429L6.4919 8.0001ZM35.9999 14.0001V8.0001H33.5059L32.6777 17.9429C34.5641 17.621 35.9999 15.9782 35.9999 14.0001Z" fill="#e42320"/>
</svg>
