<svg width="40" height="40" viewBox="0 0 40 40" fill="none" xmlns="http://www.w3.org/2000/svg">
<path fill-rule="evenodd" clip-rule="evenodd" d="M12.9999 34C14.6568 34 15.9999 35.3432 15.9999 37C15.9999 38.6569 14.6568 40 12.9999 40C11.343 40 9.9999 38.6569 9.9999 37C9.9999 35.3432 11.343 34 12.9999 34ZM30.9999 34C32.6568 34 33.9999 35.3432 33.9999 37C33.9999 38.6569 32.6568 40 30.9999 40C29.343 40 27.9999 38.6569 27.9999 37C27.9999 35.3432 29.343 34 30.9999 34ZM2 0H6C6.91121 0 7.69661 0.61368 7.93011 1.47548L7.97674 1.69589L8.94661 8H38C39.1995 8 40.1098 9.04136 39.9902 10.2007L39.9524 10.4339L36.6484 25.3016C36.0649 27.9274 33.8118 29.8287 31.1559 29.989L30.7913 30H13.4317C10.5887 30 8.15394 28.0087 7.5653 25.2598L7.50144 24.9123L4.28416 4H2C0.89543 4 0 3.10457 0 2C0 0.974328 0.77208 0.128986 1.76676 0.0134555L2 0H6H2ZM35.5067 12H9.56191L11.4549 24.3041C11.5934 25.2047 12.3194 25.8877 13.2067 25.9874L13.4316 26H30.7912C31.6505 26 32.4041 25.4529 32.6804 24.6569L32.7436 24.4339L35.5067 12Z" fill="#e42320"/>
</svg>
