<svg width="34" height="34" viewBox="0 0 34 34" fill="none" xmlns="http://www.w3.org/2000/svg">
<path d="M24.5662 33.9682C24.8209 33.9894 25.065 34 25.3197 34C26.6567 34 27.9195 33.6711 28.917 33.0556C29.4052 32.7797 29.8403 32.4295 30.2011 32.0156L31.1879 30.9226C33.1405 28.7578 32.9707 25.4045 30.8165 23.452L29.1505 21.9451C28.1742 21.0643 26.9114 20.5762 25.6062 20.5762C24.1099 20.5762 22.6879 21.2129 21.6798 22.3165L20.6929 23.4095C20.3109 23.8234 20.0138 24.2903 19.7803 24.7996C15.8964 23.1548 12.7023 20.226 10.7179 16.5013C11.4289 16.2041 12.0656 15.7478 12.5856 15.1748L13.5725 14.0818C14.5169 13.0312 15.0051 11.6835 14.9308 10.2722C14.8565 8.86082 14.241 7.56619 13.2011 6.61113L11.5244 5.10427C10.5481 4.22349 9.29594 3.73535 7.98008 3.73535C6.48383 3.73535 5.06186 4.37206 4.05374 5.47568L3.06685 6.56868C2.9289 6.71725 2.80156 6.88704 2.67422 7.05682C1.5706 8.04372 0.700435 10.1873 1.2098 12.8402C3.39582 24.2372 13.01 32.9282 24.5662 33.9682ZM3.68233 8.13922C3.70356 8.118 3.72478 8.08616 3.746 8.06494L3.78845 8.01188C3.82028 7.99066 3.8309 7.96943 3.85212 7.94821C3.94763 7.81026 4.05374 7.68292 4.15986 7.56619L5.14675 6.47318C5.86835 5.66669 6.89769 5.21038 7.98008 5.21038C8.92453 5.21038 9.83714 5.56057 10.5375 6.19727L12.2036 7.70414C12.957 8.38329 13.4027 9.32774 13.4557 10.3465C13.5088 11.3652 13.1586 12.3415 12.4795 13.0949L11.4926 14.1879C11.0257 14.7079 10.4314 15.0793 9.76286 15.2809L9.46573 15.3658C9.25349 15.4295 9.0837 15.578 8.99881 15.7797C8.91392 15.9813 8.91392 16.2041 9.02003 16.4058L9.15799 16.6817C11.3546 21.0961 15.1006 24.5237 19.6848 26.3383L19.9501 26.4445C20.1411 26.5187 20.3428 26.5081 20.5338 26.4232C20.7142 26.3383 20.8521 26.1792 20.9158 25.9882L21.0007 25.7229C21.1705 25.2241 21.4358 24.7784 21.786 24.3858L22.7728 23.2928C23.4944 22.4969 24.5238 22.0406 25.6062 22.0406C26.5506 22.0406 27.4632 22.3908 28.1636 23.0275L29.8296 24.5344C31.3896 25.9457 31.5169 28.3652 30.1056 29.9251L29.1187 31.0181C28.8534 31.3152 28.535 31.5699 28.1636 31.7822C27.2298 32.3552 25.9988 32.6099 24.7042 32.4932C13.7847 31.5169 4.72228 23.3246 2.65299 12.5643C2.22852 10.3252 3.03502 8.69103 3.68233 8.13922Z" fill="#E42320"/>
</svg>
