<svg xmlns="http://www.w3.org/2000/svg" width="45" height="43" viewBox="0 0 45 43"><g><g><path fill="#868686" d="M17.616 12.22a.694.694 0 0 1 .281-.717l3.996-2.775a.715.715 0 0 1 .387-.118h2.93a.69.69 0 0 1 .492.2c.129.117.2.294.2.482v13.416h2.261a.69.69 0 0 1 .492.2c.13.13.2.294.2.482v2.223c0 .188-.07.364-.2.493a.644.644 0 0 1-.48.2h-9.317a.69.69 0 0 1-.492-.2.648.648 0 0 1-.2-.482v-2.222c0-.188.071-.364.2-.494.117-.13.305-.2.48-.2h2.274v-8.866l-1.805 1.435a.693.693 0 0 1-1.102-.4zm.762-.106l.539 2.481 2.953-2.34v11.217h-2.953v2.07h9.164v-2.07H25.14V9.374h-2.825z"/></g><g><path fill="#868686" d="M.033 35.345a.61.61 0 0 1 .2-.682l9.644-8.736-1.23-.094c-.645-.059-1.137-.353-1.36-.835-.222-.482-.14-1.058.235-1.587l1.758-2.493c.14-.188.187-.412.14-.635a.841.841 0 0 0-.375-.54L6.48 18.107c-.55-.353-.844-.847-.82-1.376.035-.53.375-1 .949-1.293l2.707-1.388a.816.816 0 0 0 .34-1.152L8.13 10.253c-.328-.564-.363-1.14-.093-1.599.257-.447.773-.705 1.406-.705l3.082.023a.802.802 0 0 0 .832-.858l-.117-3.046c-.035-.658.21-1.046.41-1.258.434-.458 1.16-.529 1.84-.153l2.672 1.458a.836.836 0 0 0 1.137-.364L20.612.988C20.905.365 21.397 0 21.96 0c.492 0 .95.282 1.289.788l1.7 2.54a.833.833 0 0 0 1.183.2l2.46-1.858c.329-.259.692-.388 1.044-.388.61 0 1.277.446 1.383 1.446l.328 3.034a.804.804 0 0 0 .95.729l3-.483c.714-.117 1.265.106 1.581.565.27.411.305.952.082 1.517l-1.113 2.845a.853.853 0 0 0 .012.659c.093.211.27.364.492.435l2.883.964c.61.212 1.02.623 1.125 1.14.093.518-.117 1.059-.61 1.482l-2.297 1.999a.84.84 0 0 0-.293.588.806.806 0 0 0 .235.611l2.062 2.223c.446.47.621 1.023.47 1.528-.141.506-.587.87-1.22 1.023l-2.965.694a.844.844 0 0 0-.527.388l-.035.07 9.645 10.724a.638.638 0 0 1 .129.682.65.65 0 0 1-.551.423l-5.813.541-.62 5.303a.675.675 0 0 1-.657.588.666.666 0 0 1-.492-.223l-7.84-8.725a1.28 1.28 0 0 1-.81.282c-.386 0-.784-.176-1.136-.494l-2.25-2.057a.784.784 0 0 0-.55-.224.82.82 0 0 0-.633.306l-1.922 2.363c-.352.435-.797.67-1.243.67-.61 0-1.113-.423-1.37-1.117l-.516-1.434-10.84 9.806a.695.695 0 0 1-.704.118.673.673 0 0 1-.398-.588l-.176-5.42-5.824-.47a.66.66 0 0 1-.575-.448zm33.798-4.903l-2.941-.764a.84.84 0 0 0-.586.07 1.082 1.082 0 0 0-.106.27l-.562 2.752 7.219 8.031.515-4.386a.662.662 0 0 1 .598-.587l5.028-.47-7.243-8.067.27.94c.164.553.093 1.07-.188 1.447-.082.118-.176.2-.293.282-.035.047-.07.094-.117.141-.375.376-.95.506-1.594.341zm-25.09-5.914c.67.072 1.343.119 2.015.164.636.044.915-.015 1.43.106.076.018.154.035.223.07.463.243 1.055.348 1.37.765.342.45.442 1.07.446 1.634.008 1.017-.273 2.015-.41 3.022-.004.028-.037.093-.012.083.904-.358 1.785-.772 2.684-1.14a2.2 2.2 0 0 1 .832-.177c.122-.002.242.024.363.035h.012c.114.03.227.063.34.094.187.051.411.03.562.153.437.354.778.812 1.149 1.234.03.035.053.084.047.13-.03.235-.201.462-.153.694.141.67.456 1.29.704 1.928.034.088.09.167.14.247.005.007.015.014.024.012.025-.007.046-.025.07-.036h.012c.004 0 .008.003.011 0 .074-.055.095-.082.153-.153.641-.787 1.271-1.583 1.922-2.363.104-.125.433-.454.61-.517.333-.12.675-.258 1.03-.27.519-.02 1.038.235 1.418.564.77.665 1.498 1.374 2.25 2.057.033.03.071.055.106.083.004.003.007.009.012.011.022.013.068.062.07.036.009-.134-.068-.268-.047-.4.14-.865.23-1.751.527-2.575.183-.505.572-.909.891-1.34.074-.101.186-.167.281-.248.022-.018.047-.032.07-.047.066-.04.132-.08.2-.117.014-.008.224-.115.27-.13.002 0 .252-.074.34-.082.109-.01.218-.02.327-.023.143-.004.453.046.551.07.971.241 2.218 1.479 2.906.753.7-.737-.704-1.922-.843-2.928-.058-.413.176-.816.27-1.223.027-.122.063-.243.093-.364 0-.004-.002-.009 0-.012.053-.114.07-.258.164-.341.418-.368.829-.785 1.348-.988.945-.369 1.98-.446 2.965-.694.091-.023.173-.075.258-.117.003-.002-.002-.008 0-.012.002-.005.014-.007.011-.012-.541-.96-1.754-1.733-2.273-2.457-.328-.457-.624-1.015-.598-1.576.05-1.109.892-1.635 1.594-2.246.481-.418.963-.836 1.441-1.258.066-.057.168-.153.188-.247.003-.016-.02-.027-.035-.035-.076-.043-.153-.087-.235-.118-.243-.09-.492-.164-.738-.246-.719-.24-1.473-.391-2.156-.718-.413-.197-.748-.53-1.09-.835-.056-.05-.249-.43-.258-.529-.035-.39-.028-.783-.035-1.176 0-.016.007-.031.012-.047.022-.07.044-.142.07-.211.36-.957.74-1.908 1.09-2.87.033-.09.04-.187.058-.281.002-.008.008-.023 0-.024-.1-.012-.204-.026-.304-.012-1.003.147-1.987.47-3 .494-.547.013-1.08-.2-1.594-.388-.146-.053-.263-.183-.34-.317-.86-1.51-.573-2.156-.832-4.198-.013-.102-.056-.198-.094-.294-.003-.007-.016-.003-.023 0-.088.04-.18.074-.258.13-.49.348-.962.72-1.442 1.081-.842.634-.925.818-1.863 1.14-.126.044-.268.078-.398.048-.439-.102-.881-.223-1.278-.435-.205-.11-.337-.323-.48-.506-.202-.257-.369-.54-.551-.811-.384-.572-.758-1.15-1.149-1.717-.039-.057-.093-.102-.14-.153-.012-.012-.022-.025-.035-.035a.126.126 0 0 0-.047-.024c-.006 0-.008.008-.012.012-.031.035-.067.067-.094.106-.028.04-.049.085-.07.13-.44.92-.84 1.86-1.313 2.763-.41.784-.941 1.06-1.91 1.21-.309.048-.61-.136-.914-.211-.029-.007-.056-.021-.082-.035-.161-.085-.32-.173-.48-.259-.735-.396-1.463-.804-2.204-1.188-.084-.043-.188-.143-.27-.094-.09.055-.082.2-.081.306.01 1.016.117 2.03.117 3.045 0 .258-.075.51-.117.765-.005.028-.009.058-.024.082-.146.243-.223.557-.457.717-1.387.95-2.146.643-3.82.624-.262-.003-.524-.021-.785-.012-.091.003-.18.029-.27.047-.008.002-.018.004-.023.012-.005.006-.003.016 0 .023.029.087.049.179.094.259.495.889 1.017 1.763 1.523 2.645.013.023.032.045.035.07.064.533.326 1.09.164 1.6-.362 1.146-1.48 1.497-2.39 1.964-.466.238-.94.46-1.395.717a.697.697 0 0 0-.234.2c-.016.023.028.05.047.07.051.058.099.122.164.165.847.558 1.796.975 2.566 1.634.423.363.786.843.95 1.376.123.403-.053.846-.141 1.258-.03.14-.13.258-.211.376-.576.839-1.186 1.653-1.758 2.493-.053.078-.081.171-.117.259-.003.007-.008.02 0 .023.095.035.192.072.293.083zM2.248 34.593l4.887.4c.34.023.598.294.61.635l.152 4.585 10.184-9.218-.035-.094a.843.843 0 0 0-.34-.412.785.785 0 0 0-.328.07l-2.801 1.2c-.516.223-1.02.223-1.418.012a1.268 1.268 0 0 1-.797-.423c-.293-.318-.41-.8-.34-1.33l.399-3.021a.865.865 0 0 0-.176-.635 1.017 1.017 0 0 0-.164-.153l-.668.082z"/></g></g></svg>