<svg xmlns="http://www.w3.org/2000/svg" width="45" height="43" viewBox="0 0 45 43"><g><g><path fill="#e42320" d="M0 25.626C0 16.05 7.94 8.25 17.725 8.25a17.82 17.82 0 0 1 11.983 4.593l3.748-3.676c-.023-.023-.034-.045-.046-.067l-2.152-5.61a.719.719 0 0 1 .432-.938.741.741 0 0 1 .957.425l1.937 5.072 1.595-1.564c-.012-.022-.023-.033-.035-.056L33.991.99a.717.717 0 0 1 .422-.939.74.74 0 0 1 .957.414l1.936 4.905 3.668-3.598a.76.76 0 0 1 1.048 0 .725.725 0 0 1 0 1.028l-3.577 3.508 5.89.637c.41.045.706.402.66.805a.745.745 0 0 1-.74.648h-.08l-6.971-.749c-.034-.011-.057-.011-.091-.022l-1.914 1.877 6.539.704c.41.044.706.402.66.804a.745.745 0 0 1-.74.648h-.08l-6.971-.748a.72.72 0 0 1-.524-.302l-3.338 3.274c2.905 3.083 4.682 7.218 4.682 11.743C35.427 35.212 27.476 43 17.713 43 7.94 43 0 35.201 0 25.626zm1.492 0c0 8.77 7.28 15.91 16.221 15.91 8.942 0 16.221-7.14 16.221-15.91 0-4.123-1.617-7.889-4.248-10.715l-3.509 3.441c1.743 1.955 2.802 4.503 2.802 7.285 0 6.1-5.057 11.061-11.277 11.061-6.22 0-11.277-4.96-11.277-11.061 0-6.1 5.057-11.062 11.277-11.062 2.848 0 5.445 1.04 7.427 2.749l3.509-3.441a16.289 16.289 0 0 0-10.925-4.168c-8.953 0-16.232 7.14-16.22 15.91zm15.697-.514l2.29-2.246a3.383 3.383 0 0 0-1.766-.503c-1.834 0-3.326 1.464-3.326 3.263s1.492 3.262 3.326 3.262 3.327-1.463 3.327-3.262c0-.637-.194-1.23-.513-1.732l-2.29 2.246a.73.73 0 0 1-.524.212.73.73 0 0 1-.524-.212.706.706 0 0 1 0-1.028zm6.892-6.771a9.809 9.809 0 0 0-6.368-2.324c-5.4 0-9.785 4.302-9.785 9.598 0 5.296 4.386 9.597 9.785 9.597 5.4 0 9.785-4.301 9.785-9.598 0-2.38-.9-4.57-2.369-6.245l-3.543 3.475c.581.77.935 1.731.935 2.77 0 2.604-2.153 4.716-4.808 4.716-2.654 0-4.807-2.112-4.807-4.715 0-2.604 2.153-4.715 4.807-4.715 1.048 0 2.028.346 2.825.916z"/></g></g></svg>