<svg xmlns="http://www.w3.org/2000/svg" width="36" height="30" viewBox="0 0 36 30"><g><g><path fill="#ebebeb" d="M35.82 8.88l-3.357 3.363c-.028 1.513-.563 3.053-1.604 4.613a11.73 11.73 0 0 1-1.473 1.785l-1.088 1.09c.826 1.033.873 2.085.104 3.08-.282.377-.807.8-1.473.78-.01 0 .225.31.235.32.928 1.193.619 2.16-.216 3.025-.816.855-1.567.949-2.673.63-.01 0-.02 0-.029.009-1.566 2.348-2.898 2.32-4.886.648-.263.413-.347.657-.854.949-1.172.676-2.664.46-3.64-.48l-.984-.958c-.788-.065-1.52-.638-2.317-1.832-.01-.009-.019-.009-.028-.009-1.107.32-1.857.226-2.673-.63-.788-.826-1.107-1.737-.347-2.827-.704-.705-1.398-1.39-2.092-2.095a12.72 12.72 0 0 1-1.473-1.785c-1.031-1.56-1.566-3.11-1.594-4.612L0 10.58l8.845-8.858 2.804 2.808c.629-.413 2.87-1.597 5.685.32l.75-.752.056-.047c2.28-1.756 4.221-1.446 5.318-1.005.15.01.31.028.46.047L26.966.04zM6.96 19.045c.14-.451.44-.912.9-1.363 2.242-2.264 4.502-4.518 6.753-6.773l.057-.056a.655.655 0 0 1 .178-.31l1.154-1.156-.394-.394-.91-1.062.816-.582 3.349 3.372a.882.882 0 0 0 1.238 0l.215-.216a.882.882 0 0 0 0-1.24l-3.273-3.297c-2.476-1.888-4.324-.855-4.774-.554l-.075.187-1.126-.094V5.48l-.15-.15L8.573 2.98l-7.316 7.328 3.405 3.41c0 .263 0 .526.028.79.028.319.084.629.16.92.328 1.353 1.087 2.536 2.11 3.617zm11.068 8.746a2.92 2.92 0 0 1-.713-.291c-.507-.292-.591-.536-.854-.95-.422.348-.806.63-1.182.827l.47.47c.253.254.628.667 1.162.705.385.028.648-.122.91-.367.094-.084.16-.234.207-.394zm4.314-1.88l-.131-.13c-.422.413-.835.826-1.257 1.23-.15.14-.3.263-.46.366.113.104.226.216.338.32.732.676 1.304.63 1.81.037.479-.563.385-1.118-.3-1.822zm3.47-1.728l-.965-.967c-.563.563-1.135 1.118-1.707 1.672.347.338.684.686 1.031 1.033.694.686 1.473.677 1.98-.019.375-.516.271-1.108-.338-1.719zm1.595-3.523l-1.641 1.644a.883.883 0 0 0 .169.113c.61.329 1.379.028 1.632-.62.187-.479.066-.827-.16-1.137zm7.157-12.024l-7.316-7.328-2.345 2.349-.741.742s-1.229-.723-2.617-.601c-.76.037-1.679.31-2.71 1.099l-.667.667.488.488L21.17 8.58c.319.357.506.818.506 1.316a1.972 1.972 0 0 1-.581 1.39l-.216.216a1.958 1.958 0 0 1-2.776-.01l-1.126-1.136c-2.72 2.762-5.468 5.505-8.216 8.248-.422.423-.76.846-.498 1.503.254.648 1.023.958 1.633.62.271-.15.497-.375.722-.592 1.66-1.653 3.32-3.306 4.971-4.97.31-.319.666-.657 1.079-.272.431.404.15.799-.197 1.147a2087.25 2087.25 0 0 0-6.444 6.453c-.62.62-.722 1.212-.347 1.729.506.695 1.285.714 1.979.019 2.12-2.114 4.23-4.237 6.34-6.35.31-.32.526-.508 1.023-.433.3.047.403.3.366.583-.047.385-.263.544-.516.798-1.792 1.804-3.592 3.598-5.384 5.402-.694.695-.788 1.25-.31 1.813.498.592 1.08.648 1.81-.038 1.633-1.512 3.19-3.081 4.775-4.631.338-.329.675-.667 1.013-1.005.319-.32 1.07-1.278 1.604-.78.572.535-.45 1.306-.807 1.672-.338.338-.666.676-1.003 1.015-.685.685-1.38 1.38-2.064 2.076-.29.3-.628.639-.722 1.014-.094.348-.019.902.216 1.128.253.244.525.394.91.366.534-.038.9-.45 1.163-.705 1.5-1.484 2.992-2.987 4.492-4.49 1.426-1.428 2.88-2.828 4.268-4.293 1.022-1.08 1.792-2.273 2.13-3.626.074-.3.13-.611.159-.93.028-.254.037-.517.028-.79z"/></g></g></svg>