<svg xmlns="http://www.w3.org/2000/svg" width="45" height="31" viewBox="0 0 45 31"><g><g><path fill="#e42320" d="M0 26.547c.089-6.91 3.905-10.426 4.068-10.58a.76.76 0 0 1 1.005-.015c4.29 3.624 8.89.031 8.935 0a.779.779 0 0 1 1.005.046c1.05.998 1.82 2.196 2.367 3.424a.742.742 0 0 1 .725.139c4.26 3.608 8.742.153 8.934 0a.803.803 0 0 1 .784-.093c1.094-2.241 2.352-3.408 2.44-3.485a.76.76 0 0 1 1.006-.015c4.29 3.623 8.89.03 8.934 0a.779.779 0 0 1 1.006.046c3.95 3.762 3.802 10.318 3.787 10.594-.015.43-.37.783-.784.783H31.624c.222 1.566.193 2.718.193 2.825-.015.43-.37.783-.784.783H13.8a.768.768 0 0 1-.562-.245.841.841 0 0 1-.222-.584c.015-.998.119-1.934.267-2.794H.769a.76.76 0 0 1-.547-.246.841.841 0 0 1-.222-.583zm29.006-5.88c1.213 1.58 1.908 3.423 2.308 5.081h12.1c-.075-1.643-.519-5.543-2.84-8.122-1.495.937-5.651 2.979-9.719.03-.473.538-1.213 1.551-1.849 3.01zm-14.392 8.69h15.635c-.074-1.643-.518-5.543-2.84-8.123-1.494.937-5.65 2.979-9.718.03-.888 1.03-2.796 3.747-3.077 8.092zM1.583 25.748h12.055c.68-2.426 1.76-4.13 2.53-5.128-.415-1.06-.992-2.103-1.79-2.994-1.495.937-5.651 2.979-9.719.03-.872 1.03-2.795 3.747-3.076 8.092z"/></g><g><path fill="#e42320" d="M2.03 7.646c0-2.026.77-3.961 2.16-5.404C5.58.798 7.429 0 9.396 0c3.683 0 6.73 2.825 7.278 6.48.162-.215.34-.43.532-.63 1.39-1.443 3.24-2.242 5.207-2.242 2.396 0 4.526 1.198 5.872 3.04a7.675 7.675 0 0 1 2.086-4.406C31.76.798 33.61 0 35.577 0c4.053 0 7.366 3.424 7.366 7.646 0 2.043-.769 3.962-2.16 5.405-1.39 1.443-3.239 2.242-5.206 2.242-2.396 0-4.526-1.198-5.872-3.04a7.676 7.676 0 0 1-2.086 4.406c-1.39 1.444-3.239 2.242-5.206 2.242-3.683 0-6.73-2.81-7.278-6.48-.162.216-.34.43-.532.63-1.39 1.443-3.24 2.242-5.207 2.242-4.053 0-7.366-3.424-7.366-7.647zm27.749.016c0 3.332 2.603 6.034 5.813 6.034a5.68 5.68 0 0 0 4.112-1.766 6.15 6.15 0 0 0 1.701-4.268c0-3.332-2.603-6.034-5.813-6.034a5.68 5.68 0 0 0-4.112 1.765 6.123 6.123 0 0 0-1.701 4.269zM16.614 11.27c0 3.332 2.604 6.034 5.813 6.034a5.68 5.68 0 0 0 4.113-1.765 6.15 6.15 0 0 0 1.7-4.269c0-3.332-2.603-6.034-5.812-6.034-1.554 0-3.018.63-4.112 1.766a6.123 6.123 0 0 0-1.702 4.268zM3.584 7.646c0 3.332 2.602 6.035 5.812 6.035 1.553 0 3.018-.63 4.127-1.75a6.15 6.15 0 0 0 1.701-4.27c0-3.331-2.603-6.033-5.813-6.033a5.68 5.68 0 0 0-4.112 1.765 6.062 6.062 0 0 0-1.716 4.253z"/></g></g></svg>