<svg width="47" height="45" viewBox="0 0 47 45" fill="none" xmlns="http://www.w3.org/2000/svg">
<path d="M33.85 6.25555L43.5 21.0667M43.5 21.0667C42.1193 21.0667 41 22.1362 41 23.4555C41 24.7749 42.1193 25.8444 43.5 25.8444C44.8807 25.8444 46 24.7749 46 23.4555C46 22.1362 44.8807 21.0667 43.5 21.0667ZM29.7661 9.5903L42.0001 22.0222M8.82417 19.2385L24.9615 5.3M24.9615 5.3C24.9615 7.67482 26.9762 9.6 29.4615 9.6C31.9468 9.6 33.9615 7.67482 33.9615 5.3C33.9615 2.92517 31.9468 1 29.4615 1C26.9762 1 24.9615 2.92517 24.9615 5.3ZM18.6043 19.2385L29.5158 9.59969M44.5001 25.6456L41.5001 30.6222H36L33 24.4111H41.5001M20 22.0222V28.7111H28V25.3667L24.2106 22.0222H20ZM5.73703 44H29.5158C32.132 44 34.2528 41.9734 34.2528 39.4735C34.2528 36.9736 32.132 34.947 29.5158 34.947H5.73703C3.12084 34.947 1 36.9736 1 39.4735C1 41.9734 3.12084 44 5.73703 44ZM5.80225 39.6199C5.80225 38.5644 6.69768 37.7088 7.80226 37.7088C8.90683 37.7088 9.80226 38.5644 9.80226 39.6199C9.80226 40.6754 8.90683 41.531 7.80226 41.531C6.69768 41.531 5.80225 40.6754 5.80225 39.6199ZM12.6483 39.6199C12.6483 38.5644 13.5438 37.7088 14.6483 37.7088C15.7529 37.7088 16.6483 38.5644 16.6483 39.6199C16.6483 40.6754 15.7529 41.531 14.6483 41.531C13.5438 41.531 12.6483 40.6754 12.6483 39.6199ZM19.4945 39.6199C19.4945 38.5644 20.39 37.7088 21.4945 37.7088C22.5991 37.7088 23.4945 38.5644 23.4945 39.6199C23.4945 40.6754 22.5991 41.531 21.4945 41.531C20.39 41.531 19.4945 40.6754 19.4945 39.6199ZM26.3407 39.6199C26.3407 38.5644 27.2362 37.7088 28.3407 37.7088C29.4453 37.7088 30.3407 38.5644 30.3407 39.6199C30.3407 40.6754 29.4453 41.531 28.3407 41.531C27.2362 41.531 26.3407 40.6754 26.3407 39.6199ZM5.89012 33.2295L2.46704 31.5835V20.8845L5.89012 19.2385H12.2473L15.1813 20.8845V33.2295H5.89012ZM17.6264 33.2295V19.2385H25.4506L30.8297 23.3535V33.2295H17.6264Z" stroke="#e42320" stroke-width="1.3"/>
</svg>
