<svg xmlns="http://www.w3.org/2000/svg" width="24" height="20" viewBox="0 0 24 20"><g><g><path fill="#ebebeb" d="M23.497 2.532c-.74.332-1.554.527-2.352.665.38-.065.938-.738 1.165-1.012.344-.42.623-.897.784-1.41.022-.043.036-.094-.008-.123-.05-.022-.08-.007-.124.007-.894.47-1.817.817-2.8 1.056-.08.021-.138 0-.19-.05a2.606 2.606 0 0 0-.242-.247 4.848 4.848 0 0 0-3.437-1.15 5.05 5.05 0 0 0-1.97.55 5.126 5.126 0 0 0-1.59 1.28 4.927 4.927 0 0 0-.953 1.88c-.16.657-.154 1.315-.051 1.98.015.109.007.123-.095.109-3.84-.564-7.027-1.923-9.614-4.83-.11-.122-.176-.122-.264.008-1.128 1.67-.578 4.359.828 5.682.191.173.381.354.594.513-.073.015-1.019-.087-1.854-.513-.11-.072-.168-.03-.176.094-.007.18.008.347.03.542.22 1.699 1.406 3.267 3.04 3.875.191.08.41.152.616.188-.374.094-.762.152-1.825.065-.131-.022-.183.043-.131.166.798 2.154 2.527 2.79 3.824 3.16.176.028.345.028.52.071-.007.015-.021.015-.029.03-.432.643-1.92 1.127-2.608 1.366-1.26.433-2.63.629-3.964.498-.213-.028-.257-.028-.315 0-.059.037-.008.087.058.138.271.173.542.332.828.484.843.441 1.73.795 2.653 1.048 4.763 1.294 10.126.347 13.702-3.159 2.806-2.754 3.788-6.55 3.788-10.344 0-.152.176-.232.286-.311.733-.543 1.311-1.193 1.854-1.916.124-.16.117-.304.117-.369v-.021c-.007-.058 0-.044-.095 0z"/></g></g></svg>